<svg width="25" height="24" viewBox="0 0 25 24" fill="none" xmlns="http://www.w3.org/2000/svg">
<path d="M21.08 8.01002L14.53 2.77002C13.25 1.75002 11.25 1.74002 9.97996 2.76002L3.42996 8.01002C2.48996 8.76002 1.91996 10.26 2.11996 11.44L3.37996 18.98C3.66996 20.67 5.23996 22 6.94996 22H17.55C19.24 22 20.84 20.64 21.13 18.97L22.39 11.43C22.57 10.26 22 8.76002 21.08 8.01002ZM13 18C13 18.41 12.66 18.75 12.25 18.75C11.84 18.75 11.5 18.41 11.5 18V15C11.5 14.59 11.84 14.25 12.25 14.25C12.66 14.25 13 14.59 13 15V18Z" fill="#7F1F4C"/>
</svg>
