<svg width="59" height="50" viewBox="0 0 59 50" fill="none" xmlns="http://www.w3.org/2000/svg">
<path d="M40.71 12.2918C39.4563 8.69139 37.1102 5.572 33.999 3.3686C30.8878 1.1652 27.1666 -0.0123691 23.3542 9.798e-05C13.1767 9.798e-05 4.91667 8.2601 4.91667 18.4376C4.91667 19.9126 5.11333 21.4368 5.50667 22.9609C2.01583 25.7634 0 29.8934 0 34.4168C0 42.5293 6.6375 49.1668 14.75 49.1668H29.5V31.3684L24.2883 36.5801C23.1083 37.7601 21.1417 37.7601 19.9617 36.5801C18.7817 35.4001 18.7817 33.4334 19.9617 32.2534L28.025 24.1409C30.1883 21.9776 33.6792 21.9776 35.8425 24.1409L43.955 32.2534C45.135 33.4334 45.135 35.4001 43.955 36.5801C43.365 37.1701 42.5783 37.4651 41.7917 37.4651C41.005 37.4651 40.2183 37.1701 39.6283 36.5801L34.4167 31.3684V49.1668H41.9392C51.5267 48.5768 59 40.4643 59 30.7293C59 20.6009 50.7892 12.3901 40.71 12.2918Z" fill="#7F1F4C" fill-opacity="0.8"/>
</svg>
