<svg width="19" height="20" viewBox="0 0 19 20" fill="none" xmlns="http://www.w3.org/2000/svg">
<path fill-rule="evenodd" clip-rule="evenodd" d="M12.0357 1.8076C13.2073 0.636031 15.1067 0.636031 16.2783 1.8076L17.6925 3.22182C18.8641 4.39339 18.8641 6.29289 17.6925 7.46446L7.30003 17.857C7.16043 17.9966 6.98263 18.0917 6.78904 18.1304L1.48573 19.1911C0.786014 19.331 0.169094 18.7141 0.309038 18.0144L1.3697 12.7111C1.40842 12.5175 1.50357 12.3397 1.64317 12.2001L12.0357 1.8076ZM14.8641 3.22182L16.2783 4.63603C16.6688 5.02656 16.6688 5.65972 16.2783 6.05024L14.8641 7.46446L12.0357 4.63603L13.4499 3.22182C13.8404 2.83129 14.4736 2.83129 14.8641 3.22182ZM10.6215 6.05025L3.27148 13.4002L2.56437 16.9358L6.09991 16.2287L13.4499 8.87868L10.6215 6.05025Z" fill="#7F1F4C"/>
</svg>
